<svg width="80" height="16" viewBox="0 0 88 16" fill="none" xmlns="http://www.w3.org/2000/svg">
<path d="M6.07988 12.9572C4.44665 12.9572 3.12521 11.5712 3.12521 9.84788C3.12521 8.15711 4.44665 6.75036 6.07988 6.75036C7.16531 6.75036 8.25073 7.26365 8.71258 8.20149C8.74463 8.26657 8.78688 8.35385 8.78688 8.46331V11.2117C8.78688 11.2665 8.75483 11.3863 8.73297 11.4188C8.22887 12.3567 7.19736 12.9572 6.07988 12.9572ZM11.4414 15.324V4.41613H8.78688V5.33177C8.0453 4.60103 7.03564 4.19868 5.78995 4.19868C2.74932 4.19868 0.440063 6.70746 0.440063 9.84788C0.440063 13.0016 2.74932 15.5429 5.78995 15.5429C7.03564 15.5429 8.0453 15.1169 8.78688 14.3862V15.324H11.4414V15.324ZM22.9688 15.324V9.42334C22.9688 6.52108 20.7455 4.19868 17.9088 4.19868C15.0619 4.19868 12.8488 6.52108 12.8488 9.42334V15.324H15.5019V9.42334C15.5019 7.99439 16.4912 6.90272 17.9088 6.90272C19.3162 6.90272 20.3157 7.99439 20.3157 9.42334V15.324H22.9688V15.324ZM29.7158 12.9572C28.0826 12.9572 26.7612 11.5712 26.7612 9.84788C26.7612 8.15711 28.0826 6.75036 29.7158 6.75036C30.8013 6.75036 31.8328 7.2962 32.3485 8.20149C32.3806 8.26657 32.4228 8.35385 32.4228 8.46331V11.2236C32.4228 11.2783 32.3908 11.3863 32.3704 11.4188C31.8648 12.3567 30.8333 12.9572 29.7158 12.9572ZM35.0774 15.324V1.14406H32.4228V5.33177C31.6827 4.60103 30.6716 4.16466 29.4259 4.16466C26.3853 4.16466 24.076 6.70746 24.076 9.84788C24.076 13.0016 26.3853 15.5429 29.4259 15.5429C30.6716 15.5429 31.6827 15.1169 32.4228 14.3862V15.324H35.0774V15.324ZM39.1379 15.324V9.49878C39.1379 7.77547 40.0295 6.85982 41.7269 6.85982V4.19868C38.3103 4.19868 36.4848 6.04181 36.4848 9.49878V15.324H39.1379V15.324ZM47.5284 12.8271C45.917 12.8271 44.6072 11.4957 44.6072 9.84788C44.6072 8.21184 45.917 6.88201 47.5284 6.88201C49.1616 6.88201 50.4627 8.21184 50.4627 9.84788C50.4627 11.4957 49.1616 12.8271 47.5284 12.8271V12.8271ZM47.5284 15.5429C50.6346 15.5429 53.1478 13.0016 53.1478 9.84788C53.1478 6.70746 50.6346 4.19868 47.5284 4.19868C44.4353 4.19868 41.9206 6.70746 41.9206 9.84788C41.9206 13.0016 44.4353 15.5429 47.5284 15.5429V15.5429ZM55.6829 3.58776C56.5323 3.58776 57.22 2.87772 57.22 2.01681C57.22 1.14406 56.5323 0.445861 55.6829 0.445861C54.835 0.445861 54.1473 1.14406 54.1473 2.01681C54.1473 2.87772 54.835 3.58776 55.6829 3.58776ZM57.0044 4.41613H54.3498V15.324H57.0044V4.41613ZM63.8491 12.9572C62.2158 12.9572 60.8944 11.5712 60.8944 9.84788C60.8944 8.15711 62.2158 6.75036 63.8491 6.75036C64.9345 6.75036 65.9645 7.2962 66.4803 8.20149C66.5138 8.26657 66.5561 8.35385 66.5561 8.46331V11.2339C66.5561 11.2887 66.524 11.3863 66.5022 11.4188C65.9981 12.3567 64.9665 12.9572 63.8491 12.9572ZM69.2092 15.324V1.14406H66.5561V5.33177C65.8145 4.60103 64.8048 4.19868 63.5591 4.19868C60.5185 4.19868 58.2078 6.70746 58.2078 9.84788C58.2078 13.0016 60.5185 15.5533 63.5591 15.5533C64.8048 15.5533 65.8145 15.1169 66.5561 14.3862V15.324H69.2092V15.324Z" fill="#77C159"/>
<path d="M83.198 15.3244L87.5601 4.40471H85.3689L81.8008 13.8733H82.5424L78.9656 4.41654H76.7088L81.0709 15.3244H83.198ZM76.1829 15.4546L76.1931 13.5138H75.9571C74.3996 13.5138 73.3025 12.5642 73.3025 10.9607V6.21677H76.1071V4.41654H73.3025V1.45955H71.3589V10.9607C71.3589 13.786 73.1641 15.4546 75.9571 15.4546H76.1829V15.4546Z" fill="#868686"/>
</svg>
