<svg width="33" height="27" viewBox="0 0 33 27" fill="none" xmlns="http://www.w3.org/2000/svg">
<path d="M0.112229 22.4249V26.8881H4.58723C4.58629 24.4331 2.57277 22.4249 0.112229 22.4249V22.4249ZM0.112229 16.5123V19.525C4.25149 19.525 7.60704 22.8717 7.60704 27H10.6278C10.5156 21.1984 5.81704 16.5123 0.112229 16.5123V16.5123ZM27.0717 6.02456H6.04055V8.47953C11.9698 10.3758 16.6674 15.0619 18.5696 20.9754H26.9594V6.02456H27.0717ZM0.112229 10.4877V13.5005C7.60704 13.5005 13.6476 19.525 13.6476 27H16.5561C16.5561 17.8508 9.17258 10.4877 0.112229 10.4877V10.4877ZM30.0915 0H3.02075C1.34203 0 0 1.33848 0 3.01275V7.47591H3.02075V3.01275H29.9802V23.8763H19.4646V26.889H29.9802C31.6579 26.889 33.0009 25.5505 33.0009 23.8763V3.01275C33 1.33848 31.6579 0 30.0915 0Z" fill="#666666"/>
</svg>
