<svg width="35" height="35" viewBox="0 0 35 35" fill="none" xmlns="http://www.w3.org/2000/svg">
<path d="M10.6824 22.1466C16.5821 22.1466 21.3648 17.3639 21.3648 11.4642C21.3648 5.5645 16.5821 0.78183 10.6824 0.78183C4.78267 0.78183 0 5.5645 0 11.4642C0 17.3639 4.78267 22.1466 10.6824 22.1466Z" fill="#4285F4"/>
<path d="M35 12.5063C35 13.7056 34.0277 14.6776 32.8288 14.6776C31.6299 14.6776 30.6575 13.7056 30.6575 12.5063C30.6575 11.3071 31.6299 10.3351 32.8288 10.3351C34.0277 10.3351 35 11.3071 35 12.5063Z" fill="#34A853"/>
<path d="M31.0918 17.8041C31.0918 20.2022 29.1478 22.1465 26.7494 22.1465C24.3508 22.1465 22.407 20.2022 22.407 17.8041C22.407 15.4059 24.3509 13.4617 26.7494 13.4617C29.1479 13.4617 31.0918 15.4059 31.0918 17.8041Z" fill="#EA4335"/>
<path d="M31.9603 29.0075C31.9603 31.8855 29.6276 34.2182 26.7494 34.2182C23.8712 34.2182 21.5384 31.8855 21.5384 29.0075C21.5384 26.1298 23.8711 23.7967 26.7494 23.7967C29.6276 23.7967 31.9603 26.1298 31.9603 29.0075Z" fill="#FBBC05"/>
</svg>
